<?xml version="1.0" encoding="UTF-8"?>
<svg id="Layer_2" data-name="Layer 2" xmlns="http://www.w3.org/2000/svg" viewBox="0 0 437.33 437.33">
  <defs>
    <style>
      .cls-1 {
        fill: #fff;
      }

      .cls-2 {
        fill: #bb886d;
      }

      .cls-3 {
        fill: #da602e;
      }

      .cls-4 {
        fill: #e19d50;
      }

      .cls-5 {
        fill: #1c4a5b;
      }
    </style>
  </defs>
  <g id="Layer_1-2" data-name="Layer 1">
    <g>
      <rect class="cls-1" width="437.33" height="437.33" rx="39.82" ry="39.82"/>
      <g>
        <g>
          <g>
            <path class="cls-5" d="M266.69,373.17h-83.92s0-3.71,6.06-8.14v-1.34c0-2.08,1.54-3.83,3.61-4.1,3.5-.45,8.66-2.1,11.35-7.74h41.88c2.69,5.64,7.85,7.29,11.35,7.74,2.07,.27,3.61,2.02,3.61,4.1v1.34c6.06,4.44,6.06,8.14,6.06,8.14Z"/>
            <path class="cls-5" d="M243.38,346.97v.6h-37.3v-.6c0-1.78,.81-3.46,2.2-4.56l5.82-4.64c1.39-1.11,2.2-2.79,2.2-4.56v-8.74h16.87v8.74c0,1.78,.81,3.46,2.2,4.56l5.82,4.64c1.39,1.11,2.2,2.79,2.2,4.56Z"/>
            <path class="cls-5" d="M276.75,271.15h-104.04s-2.71,44.8,46.51,49.81c3.66,.37,7.35,.37,11.01,0,49.23-5.01,46.51-49.81,46.51-49.81Zm-25.99,13.69l-6.5-8.6s7.9-5.09,6.5,8.6Zm-21.38-6.44l.95-.85c1.98-1.76,5.02-1.58,6.77,.4l5.21,5.9c1.9,2.15,1.49,5.46-.87,7.1-.2,.14-.39,.28-.58,.41-1.91,1.37-4.52,1.14-6.19-.52l-5.5-5.51c-1.94-1.94-1.85-5.11,.2-6.94Zm-22.22,5.46l5.21-5.9c1.75-1.99,4.79-2.16,6.77-.4l.95,.85c2.05,1.83,2.13,5.01,.2,6.94l-5.5,5.51c-1.66,1.66-4.28,1.89-6.19,.52-.19-.14-.38-.28-.58-.41-2.35-1.64-2.76-4.95-.87-7.1Zm-1.95-7.61l-6.5,8.6c-1.4-13.69,6.5-8.6,6.5-8.6Zm-21.8,.5c1.36-1.08,3.17-1.51,4.8-.92,4.57,1.63,3.6,8.87,3.6,8.87-3.35,.62-8.89,3.35-8.89,3.35-3.79-6.26-1.54-9.68,.49-11.3Zm2.87,15.33c.51-1.21,1.56-2.08,2.76-2.6,2.97-1.3,8.56-1.74,10.48,17.65,.05,.48-16.16-8.12-13.25-15.06Zm17.47,17.82c-.71-.13,.44-12.08-3.33-17.33,.43,.2,14.28,6.61,15.14,19.51,0,0-6.99-1.31-11.8-2.18Zm11.8-12.23l9.19-9.77,9.19,9.77-9.19,13.62-9.19-13.62Zm30.17,12.23c-4.81,.88-11.8,2.18-11.8,2.18,.86-12.9,14.7-19.32,15.14-19.51-3.78,5.25-2.63,17.2-3.33,17.33Zm4.22-2.76c1.93-19.39,7.51-18.95,10.48-17.65,1.2,.52,2.25,1.39,2.76,2.6,2.91,6.93-13.3,15.54-13.25,15.06Zm16.61-19.09s-5.54-2.73-8.89-3.35c0,0-.97-7.24,3.6-8.87,1.63-.59,3.44-.16,4.8,.92,2.04,1.62,4.28,5.05,.49,11.3Z"/>
            <path class="cls-5" d="M179.43,255.64h90.61c3.72,0,6.74,3.02,6.74,6.74v5.99h-104.09v-5.99c0-3.72,3.02-6.74,6.74-6.74Z"/>
            <path class="cls-5" d="M254.94,231.01c-20.42-21.53-23.75-34.63-23.75-34.63-2.2,1.75-4.65,2.16-6.05,2.24-.33,.01-.61,.01-.81,0-1.42-.08-3.87-.49-6.05-2.24,0,0-3.33,13.1-23.76,34.63,0,0-12.88,10.88-17.53,20.43h95.5c-4.67-9.55-17.54-20.43-17.54-20.43Zm-59.76,9.55l12.66-13.77c.22,7.1-7.77,15.77-7.77,15.77-2.22,1.56-4.89-2-4.89-2Zm12.66,2.39s2.89-5.28,7.1-5.71c0,0,4.66-.1,7.1,5.71h-14.21Zm14.21-5.71s-5.11-4.89-4.67-5.23c.45-.33,4.67-5.22,4.67-5.22v10.44Zm0-21.09l-9.32,15.32v-10.44l9.32-12.43v7.55Zm9.32-5.34l11.1,13.1v9.99s-3.77-1.33-5.11-2.44c-1.33-1.11,0-6.44,0-6.44l-7.99-10.43,2-3.78Zm-5.13,26.67v-18.19c14.07,10.08,0,18.19,0,18.19Zm5.64,5.48c6.21-12.33,12.58,0,12.58,0h-12.58Zm24.57-.69c-.29,1.04-3.55,0-3.55,0l-5.92-5.91,1.34-4.34,7.54,7.44s.89,1.78,.59,2.81Z"/>
            <path class="cls-5" d="M224.73,193.76c-5.95,0-10.8-4.84-10.8-10.8s4.84-10.8,10.8-10.8,10.8,4.84,10.8,10.8-4.84,10.8-10.8,10.8Zm0-18.6c-4.3,0-7.8,3.5-7.8,7.8s3.5,7.8,7.8,7.8,7.8-3.5,7.8-7.8-3.5-7.8-7.8-7.8Z"/>
          </g>
          <g>
            <path class="cls-5" d="M279.52,280.08v-11.71s4.74-6.62,8.58-10.66c0,0,4.74-5.33,0-9.32,0,0-8.14-3.55-10.51,6.22,0,0-3.7-5.18-1.78-9.18,0,0,1.78-5.94,9.92-5.34,0,0,8.58-.44,10.51,9.04,0,0,1.63,8.44-5.18,13.77,0,0-11.4,11.58-11.55,17.19Z"/>
            <path class="cls-5" d="M169.94,280.08v-11.71s-4.74-6.62-8.58-10.66c0,0-4.74-5.33,0-9.32,0,0,8.14-3.55,10.51,6.22,0,0,3.7-5.18,1.78-9.18,0,0-1.78-5.94-9.92-5.34,0,0-8.58-.44-10.51,9.04,0,0-1.63,8.44,5.18,13.77,0,0,11.4,11.58,11.55,17.19Z"/>
          </g>
        </g>
        <path class="cls-3" d="M109.14,260.26s8.46,11.46,14.48,30.91c1.72,5.56,4.37,10.82,8.09,15.29,5.9,7.07,15.86,14.54,30.99,12.78l-30.52-38.11,35.34,35.91s7.62-26.88-18.46-47.14c0,0-13.44-11.43-39.92-9.63Z"/>
        <path class="cls-4" d="M328.19,268.54s-7.32,9.92-12.53,26.75c-1.49,4.81-3.78,9.36-7.01,13.23-5.11,6.12-13.73,12.59-26.82,11.06l26.42-32.99-30.58,31.08s-6.6-23.26,15.97-40.8c0,0,11.63-9.9,34.55-8.33Z"/>
        <g>
          <path class="cls-2" d="M215.79,64.16c4.76,.32,9.38,3.2,12.45,7.25,6.52,8.46,5.2,20.9-.55,29.41-6.29,9.69-21.39,20.21-14.53,31.93,3.49,5.77,9.94,10.47,11.49,17.53,.56,2.39,.49,5.05-.67,7.21,.26-2.37-.36-4.55-1.4-6.44-3.61-6.35-9.71-8.58-14.58-14.77-5.61-6.73-4.24-16.51,.1-23.43,3.52-5.97,9.57-11.13,13.39-16.3,8.06-10.39,7.12-26.13-5.7-32.39h0Z"/>
          <path class="cls-2" d="M236.27,97.72c4.87,1.96,7.73,8.38,5.68,13.98-1.76,4.97-6.62,7.28-6.97,12.43-.2,7.43,6.87,13.1,7.43,20.61,.23,2.63-.31,5.55-2.16,7.5,1.04-2.37,.91-4.88,.23-7.15-1.43-4.86-5.12-8.3-7.46-12.92-2.88-5.33-2.89-11.55,1.58-16.14,1.74-2,3.51-3.64,4.47-5.55,2.08-4.11,.81-9.63-2.82-12.75h0Z"/>
        </g>
      </g>
    </g>
  </g>
</svg>