<?xml version="1.0" encoding="UTF-8"?>
<svg id="Layer_2" data-name="Layer 2" xmlns="http://www.w3.org/2000/svg" viewBox="0 0 2837.69 1343.49">
  <defs>
    <style>
      .cls-1 {
        fill: #fff;
      }

      .cls-2 {
        fill: #bb886d;
      }

      .cls-3 {
        fill: #da602e;
      }

      .cls-4 {
        fill: #bf592b;
      }

      .cls-5 {
        fill: #e19d50;
      }
    </style>
  </defs>
  <g id="Layer_1-2" data-name="Layer 1">
    <g>
      <g>
        <g>
          <g>
            <path class="cls-1" d="M830.31,677.74h-184.07s0-8.13,13.3-17.86v-2.94c0-4.56,3.37-8.39,7.91-8.98,7.67-.99,19-4.6,24.89-16.98h91.86c5.89,12.38,17.22,16,24.89,16.98,4.54,.59,7.91,4.43,7.91,8.98v2.94c13.3,9.73,13.3,17.86,13.3,17.86Z"/>
            <path class="cls-1" d="M779.17,620.27v1.31h-81.8v-1.31c0-3.9,1.77-7.58,4.82-10.01l12.76-10.17c3.05-2.43,4.82-6.11,4.82-10.01v-19.17h37.01v19.17c0,3.9,1.77,7.58,4.82,10.01l12.76,10.17c3.05,2.43,4.82,6.11,4.82,10.01Z"/>
            <path class="cls-1" d="M852.36,453.99h-228.18s-5.95,98.26,102.02,109.24c8.02,.82,16.13,.82,24.15,0,107.97-10.98,102.02-109.24,102.02-109.24Zm-57.01,30.03l-14.26-18.85s17.32-11.17,14.26,18.85Zm-46.9-14.13l2.09-1.86c4.34-3.86,11-3.47,14.84,.88l11.43,12.94c4.16,4.72,3.26,11.97-1.9,15.57-.43,.3-.86,.6-1.27,.91-4.18,3-9.92,2.5-13.57-1.14l-12.06-12.08c-4.25-4.25-4.06-11.22,.43-15.23Zm-48.73,11.97l11.43-12.94c3.84-4.36,10.51-4.75,14.84-.88l2.09,1.86c4.49,4.01,4.68,10.98,.43,15.23l-12.06,12.08c-3.65,3.65-9.38,4.14-13.57,1.14-.41-.3-.84-.6-1.27-.91-5.16-3.6-6.06-10.85-1.9-15.57Zm-4.27-16.7l-14.26,18.85c-3.06-30.03,14.26-18.85,14.26-18.85Zm-47.82,1.1c2.98-2.37,6.95-3.32,10.53-2.03,10.03,3.58,7.9,19.46,7.9,19.46-7.36,1.36-19.5,7.36-19.5,7.36-8.3-13.72-3.39-21.23,1.08-24.79Zm6.3,33.63c1.12-2.65,3.43-4.55,6.06-5.69,6.51-2.85,18.77-3.82,23,38.72,.11,1.06-35.44-17.82-29.06-33.03Zm38.31,39.09c-1.55-.28,.97-26.49-7.31-38.01,.95,.43,31.32,14.5,33.2,42.8,0,0-15.34-2.87-25.89-4.79Zm25.89-26.83l20.15-21.42,20.15,21.42-20.15,29.88-20.15-29.88Zm66.18,26.83c-10.55,1.92-25.89,4.79-25.89,4.79,1.88-28.3,32.25-42.37,33.2-42.8-8.28,11.52-5.76,37.73-7.31,38.01Zm9.25-6.06c4.23-42.54,16.48-41.57,23-38.72,2.63,1.14,4.94,3.04,6.06,5.69,6.39,15.21-29.16,34.08-29.06,33.03Zm36.43-41.87s-12.15-6-19.5-7.36c0,0-2.14-15.88,7.89-19.46,3.58-1.29,7.55-.35,10.53,2.03,4.46,3.56,9.38,11.07,1.08,24.79Z"/>
            <path class="cls-1" d="M630.87,419.97h214.82c3.72,0,6.74,3.02,6.74,6.74v21.18h-228.3v-21.18c0-3.72,3.02-6.74,6.74-6.74Z"/>
            <path class="cls-1" d="M804.53,365.94c-44.79-47.22-52.09-75.95-52.09-75.95-4.82,3.83-10.19,4.73-13.28,4.91-.72,.02-1.34,.02-1.78,0-3.11-.18-8.48-1.07-13.28-4.91,0,0-7.3,28.73-52.11,75.95,0,0-28.25,23.86-38.46,44.81h209.47c-10.23-20.95-38.48-44.81-38.48-44.81Zm-131.06,20.95l27.76-30.2c.48,15.58-17.05,34.58-17.05,34.58-4.86,3.42-10.72-4.38-10.72-4.38Zm27.76,5.24s6.33-11.57,15.58-12.53c0,0,10.21-.22,15.58,12.53h-31.16Zm31.16-12.53s-11.2-10.72-10.23-11.46c.99-.72,10.23-11.44,10.23-11.44v22.9Zm0-46.26l-20.44,33.59v-22.9l20.44-27.26v16.57Zm20.44-11.7l24.35,28.73v21.91s-8.26-2.91-11.2-5.35c-2.91-2.43,0-14.13,0-14.13l-17.53-22.88,4.38-8.28Zm-11.24,58.49v-39.9c30.85,22.11,0,39.9,0,39.9Zm12.38,12.01c13.63-27.04,27.59,0,27.59,0h-27.59Zm53.88-1.51c-.64,2.28-7.78,0-7.78,0l-12.99-12.97,2.94-9.51,16.54,16.33s1.95,3.9,1.29,6.16Z"/>
            <path class="cls-1" d="M738.27,284.25c-13.06,0-23.68-10.62-23.68-23.68s10.62-23.68,23.68-23.68,23.68,10.62,23.68,23.68-10.62,23.68-23.68,23.68Zm0-40.79c-9.43,0-17.11,7.67-17.11,17.11s7.68,17.11,17.11,17.11,17.11-7.67,17.11-17.11-7.67-17.11-17.11-17.11Z"/>
          </g>
          <g>
            <path class="cls-1" d="M858.44,473.57v-25.69s10.39-14.53,18.83-23.37c0,0,10.39-11.69,0-20.45,0,0-17.86-7.79-23.05,13.63,0,0-8.12-11.36-3.9-20.13,0,0,3.9-13.02,21.75-11.71,0,0,18.83-.95,23.05,19.82,0,0,3.57,18.5-11.36,30.19,0,0-25,25.4-25.32,37.7Z"/>
            <path class="cls-1" d="M618.11,473.57v-25.69s-10.39-14.53-18.83-23.37c0,0-10.39-11.69,0-20.45,0,0,17.86-7.79,23.05,13.63,0,0,8.12-11.36,3.9-20.13,0,0-3.9-13.02-21.75-11.71,0,0-18.83-.95-23.05,19.82,0,0-3.57,18.5,11.36,30.19,0,0,25,25.4,25.32,37.7Z"/>
          </g>
        </g>
        <path class="cls-3" d="M484.75,430.09s18.56,25.14,31.76,67.79c3.77,12.2,9.58,23.73,17.75,33.53,12.94,15.52,34.79,31.9,67.96,28.03l-66.94-83.6,77.5,78.76s16.72-58.96-40.48-103.39c0,0-29.48-25.08-87.56-21.12Z"/>
        <path class="cls-5" d="M965.2,448.25s-16.06,21.75-27.49,58.67c-3.27,10.56-8.29,20.53-15.37,29.02-11.2,13.43-30.11,27.61-58.82,24.26l57.94-72.35-67.08,68.16s-14.47-51.03,35.03-89.48c0,0,25.51-21.7,75.78-18.28Z"/>
        <g>
          <path class="cls-2" d="M718.67,0c10.44,.7,20.57,7.02,27.3,15.9,14.3,18.56,11.4,45.84-1.2,64.51-13.79,21.26-46.91,44.33-31.87,70.03,7.65,12.65,21.81,22.97,25.2,38.46,1.22,5.24,1.08,11.09-1.47,15.82,.57-5.19-.78-9.99-3.06-14.13-7.92-13.92-21.29-18.82-31.98-32.4-12.31-14.76-9.31-36.21,.22-51.39,7.73-13.1,20.98-24.41,29.37-35.76,17.69-22.79,15.61-57.31-12.51-71.05h0Z"/>
          <path class="cls-2" d="M763.58,73.6c10.69,4.3,16.96,18.38,12.46,30.65-3.87,10.91-14.52,15.96-15.28,27.26-.44,16.3,15.06,28.73,16.3,45.2,.5,5.77-.67,12.18-4.73,16.45,2.28-5.21,2-10.71,.51-15.68-3.14-10.67-11.23-18.21-16.37-28.34-6.33-11.69-6.33-25.33,3.46-35.4,3.82-4.39,7.7-7.98,9.81-12.18,4.57-9.02,1.78-21.12-6.18-27.96h0Z"/>
        </g>
      </g>
      <g>
        <path class="cls-4" d="M1732.43,1078.64c128.76,108.8,87.02,235.45,318.31,217.81-77.76,74.14-213.67,36.01-267.42-49.57-40.18-51.52-50.25-137.22-116.04-163.24,75.26-10.97,106.25-63.13,83.58-134.55-5.1-38.2-70.78-84.32-85.87-28.25-10.42,82.47-1.31,170.94-4.02,255.55,2.44,21.32,5.15,44.89,24.18,59.76-34.87,.46-70.44,1.52-105.07-.23,17.46-14.2,23.09-34.37,24.26-55.96-2.05-83.23,4.17-167.66-2.65-250.36-2.21-10.41-4.39-18.53-10.75-26.6-21.76-23.38-58.4,10.91-75.74,26.93-17.33,20.37-28.63,47.98-24.4,73.56,3.77,28.19,36.58,35.72,53.95,13.45,7.3-6.19,8.61-17.9,12.95-25.42,15.24,.09,28.92,9,33.13,23.97,8.86,132.05-182.06,77.63-119.57-53.83,27.43-65.24,104.88-77.71,168.09-74.43,46.66,2.71,96.12-2.84,137.99,21.36,84.64,54.72,46.11,152.72-44.91,170.04Z"/>
        <path class="cls-4" d="M2499.41,1236.29c-36.49-.51-74.6,.98-110.32-.51,10.35-5.07,16.86-15.22,21.2-25.31,8.34-25.57,20-165.26-15.75-165.92,25.24-20.81,53.23-36.55,79.85-55.45,3.92,7.78-1.09,19.26,2.31,27.57,30.94-44.66,111.55-44.61,135.72,7.04,30.72,81.37-22.55,192.65,47.85,259.23,20.74,19.84,50.01,22.66,76.89,24.56-57.81,37.12-154.02,9.14-167.2-63.06-15.86-66.91,8.21-145.44-11-210.95-2.21-7.55-6.82-14.31-13.34-18.73-25.03-16.98-67.22-1.89-70.22,31.05,.6,49.94-17.38,161.64,24.01,190.47Z"/>
        <path class="cls-4" d="M2170.76,1238.76c-37.07,1.66-80.69-13-93.2-50.66-10.39-34.04,35.23-63.83,56.43-32.18,6.29,14.92-31.25,14.57,1.86,57.7,45.06,45.45,97.69-13.19,48.77-53.23-34.66-30.31-81.92-51.86-100.81-96.01-17.79-57.62,46.35-92.01,96.11-80.58,89.38,6.25,88.68,121.44,9.34,80.49-3.79-5.79,7.23-8.57,8.28-14.66,16.44-32.58-20.23-74.09-54.7-54.49-27.04,19.86-3.75,55.86,17.59,70.98,40.13,29.9,109.55,65.43,95.13,124.73-11.11,35.28-50.31,49.72-84.79,47.9Z"/>
        <path class="cls-4" d="M2711.87,1019.03c8.24,53.38,74.15,68.12,105.14,107.4,41.58,40.37,16.49,104.24-39.78,110.46-47.74,13.14-139.38-14.27-116.2-76.57,5.59-24.98,67.26-20.73,50.97,4.34-20.75,19.11-2.47,50.36,19,61.2,49.94,22.43,76.53-36.38,34.34-66.65-40.56-34.76-110.81-63.17-101.5-126.78,18.21-73.8,164.17-65.05,167,12.95-5.29,24.6-33.94,36.54-54.96,21-9.52-4.29-1.8-8.45,2.4-13.59,27.27-48.07-54.6-94.29-66.41-33.76Z"/>
        <path class="cls-4" d="M2058.75,1148.39c-7.76,.08-5.74,10.99-9.53,15.83-12.3,33.83-47.93,51.23-83.06,46.61-33.28-7.16-59.58-35.9-70.59-67.01-2.32-4.78-10.85-26.48-1.18-26.99,42.8-10.6,87.87-17.46,129.96-32.35,98.99-35.91-104.23-186.21-174.36-31.41-73.08,188.45,177.26,270.69,208.76,95.33Zm-171.35-35.67c-5.74-43.7,6.4-116.43,61.87-120.36,34.3-1.28,58.67,46.85,41.27,74.95-11.87,29.34-76.82,49.22-103.14,45.41Z"/>
        <path class="cls-4" d="M2358.13,1087.47c3.4,44.94-9.73,94.87,12.41,135.02,.6,5.79,13.35,10.98,9.8,14.1-33.87,.12-67.82,.04-101.72,.1-10.6,1.79,13.3-14.89,13.98-21.92,7.83-24.17,19.24-168.43-11.78-172.12,98.72-75.98,74.35-68.12,77.31,44.82Z"/>
        <path class="cls-4" d="M2321.84,975.57c-55.44,.28-46.62-86.9,7.65-77.57,46.71,8.7,40.34,79.34-7.65,77.57Z"/>
      </g>
      <path class="cls-1" d="M745.3,971.74c-17.01-41.76-79.94-4.68-47.76,29.89,20.77,22.26,57.76-2.34,47.76-29.89Zm-576.03,253.49c-28.45-31.45-11.08-81.14-16.44-119.88-13.39,2.34-24.61,9.47-37.43,13.56-4.43,1.57-5.28,2.18-5.3,6.87-2.19,34.11,7.59,74.72-17.79,101.81h77.98c.13-.35,.24-.7,.37-1.05-.46-.44-.92-.89-1.4-1.31Zm269.12-307.56c-11.96-35.68-3.66-74.8-6.04-111.86-10.01,6.26-43.82,11.59-43.36,23.72-1.96,33.83,8.79,75.11-17.26,101.81h77.22c.13-.31,.28-.61,.41-.94-4.84-3.27-8.61-7.24-10.97-12.73Zm312.42,302.09c-10.35-14.83-9.76-33.86-10.42-51.17-.92-50.84,1.39-101.62-.91-152.36-18.27,14.91-37.69,26.12-57.97,36.73,9.4,5.02,14.9,13.16,14.89,23.83,.13,32.72,.5,65.44,.52,98.19-.63,17.57-.54,41.41-17.92,51.19,26.37,3.92,52.56,1.18,79.2,1.05-2.88-2.88-5.41-4.97-7.39-7.46Zm85.02-196.86c10.86-.33,21.45,.49,32.31-.7-4.96-8.97-41.61,6.86-38.41-8.65-1.29-8.55,2.93-20.54-1.87-27.53-9.16,19-30.06,29.74-50.21,33.12-1.44,.17-3.29,0-3.92,3.23,9.19,.05,13.09,1.02,11.86,11.14,1.28,51.63-2.44,103.55,1.96,154.98,3.46,18.3,14.78,36.8,33.99,40.79,12.24,1.68,29.88,5.01,37.52-7.74-32.81,3.28-27.96-39.81-29.41-61.65-.22-26.29-.04-52.6-.09-78.9-.02-17.24-.13-34.49-.13-51.73,0-5.54,.85-6.3,6.41-6.34Zm132.79-287.09c-12.34-29.78-54.3-14.47-65.38,8.92-4.51,5.37-5.73,19.91-12.21,21.45v-45.39c-20.01,12.6-38.61,25.64-57.71,39.61,11.76,4.69,16.01,14.68,15.65,26.62-.17,29.43-.26,58.86-.09,88.29-.78,18.86-.64,43.8-18.75,54.74,.22,.37,.46,.74,.68,1.13,25.78,.81,52.24,1.45,77.91-.22-28.81-22.48-13.74-104-16.96-140.48-3.07-18.13,13.43-45.4,33.8-27.6,3.12,3.44,6.43,6.74,10.94,8.61,21.88,11.02,42.09-15.49,32.11-35.69Zm-292.52,302.72c-5.41-17.34-26.65-24.47-42.29-16.37-20.41,8.29-27.55,30.2-39.02,46.96-.46-.09-.89-.17-1.33-.24-2.42-15.19,.37-30.59-.5-46.13-20.32,9.6-38.23,25.8-58.36,38.17,9.78,4.91,16.08,11.62,15.7,22.54,.2,26.81,.37,53.63,.31,80.46,1.12,22.65-1.37,46.94-19.29,63.02,5.14,1.35,75.69,1.2,79.57-.26-29.96-21.8-13.27-99.18-17.62-135.6-.9-18.92,18.98-44.47,37.15-27.71,6.35,5.7,13.19,11.79,22.24,11.55,18.44,.15,32.84-19.31,23.46-36.41Zm-232.33-394.24c-33.48,1.43-67.93-4.15-100.63,4.86-68.07,17.13-98.4,128.78-13.65,142.75,38.98,6.81,72-59.06,27.34-71.92-13.98-1.88-11.75,16.98-22.3,22.94-35.6,19.01-39.23-31.55-25.46-53.19,8.31-20.41,50.85-56.35,70.24-34.45,19.59,40.6,4.42,89.35,10.92,131.94,11.87-6.16,23.78-10.76,36.45-14.69,3.97-1.31,5.32-2.77,5.45-7.09,4.19-39.42-12.42-89.57,17.88-120.86-2.86-.13-4.56-.28-6.23-.28ZM165.81,938.71c-44.58,.84-93.92-7.27-131.72,22.08-41.55,28.7-50.7,106.84,4.23,125.79,58.06,20.5,88.57-70.42,33.42-69.89-24.91,57.55-69.97,12.68-38.02-35.66,12.5-18.94,32.36-37.69,56.5-36.69,33.97,8.83,15.03,110.07,20.17,140.61,14.93-3.75,27.97-10.79,42.66-14.65,3.53-33.43-10.99-110.43,18.07-128.93-1.05-3.25-3.27-2.66-5.32-2.66Zm352.97,217.48c-14.29,66.97-99,63.59-127.53,8.67-4.03-7.53-19.09-36.6-6.26-39.59,40.18-12.34,84.02-14.99,122.19-32.61,28.12-22.24-9.28-58.2-31.91-67.98-59.67-27.95-133.15,21.31-135.6,85.87-19.28,134.73,165.22,168.99,179.11,45.63Zm-140.94-50.36c-1.58-35.52,20.04-85.4,62.35-79.51,34.1,3.78,48.57,55.32,17.33,72.58-21.89,12.08-47.74,14.55-71.29,22.37-2.4,.65-4.45,3.01-8.35,1.04,0-5.41,.17-10.94-.04-16.48Zm1072.12,48.72c-.37-.04-.74-.09-1.11-.13-17.51,88.72-134.31,53.1-140.41-22.91-.39-4.84,.39-5.62,5.27-6.34,17.75-2.57,34.84-8.18,52.54-11.12,24.65-9.02,76.3-5.62,81.01-38.15-3.26-21.95-20.24-38.97-39.05-49.38-65.42-35.67-144.92,28.39-140.5,98.58-9.22,117.63,167,153.21,182.25,29.45Zm-141.94-64.2c3.64-24.95,15.66-52.99,41.05-61.93,28.05-11.83,57.37,15.35,54.11,44.17,2.43,33.65-71.18,48.07-96.6,48.26,.22-10.44-.87-20.51,1.44-30.5Zm-490.09-275.6c-21.32-148.59-228.13-114.05-197.53,36.52,25.81,139.8,209.25,95.6,197.53-36.52Zm-41.62,8.87c-1.1,147.45-121.28,150.12-119.42,1.46h.07c-2.28-40.69,11.87-104,63.55-100.37,49.1,1.67,56.74,60.2,55.81,98.91Zm-168.8,103.97c-29.4-29.97-9.94-170.14-14.44-220.4-.13-22.38-1.03-45.6,16.05-62.41h-78.39c15.98,12.15,19.11,31.68,18.18,50.58,.28,35.02,.67,70.02,.59,105.01,0,2.35,.2,4.86-2.25,6.85-82.52-90.88-194.6,35.82-210.9-2.35-.44,.33-.85,.65-1.26,.98,7.2,48.12,115.15-41.23,170.94-12.88,22.69,7.89,41.52,29.17,42.66,53.73-1.63,28.34,7.53,63.31-17.22,83.98,4.56,1.44,73.97,1.39,78.72-.02-.96-1.11-1.87-2.05-2.68-3.05Zm460.55,273.62c-23.89,19.92-27.37-14.38-25.72-31.52-.02-26.49,.02-52.97-.07-79.44,.73-42.1-39.51-73.79-79.72-73.58-78.61-3.48-94.22,89.73-32.98,77.11,6.76-1.7,10.49-7.57,14.19-12.95,4.91-8-14.46-10.49-6.76-33.05,5.37-18.49,28.78-27.92,45.82-19.29,16.29,9.86,16.69,33.66,16.39,50.62-36.55,16.52-78.05,24.85-107.83,52.69-24.12,23.98-24.97,71.05,6,89.65,39.42,22.12,82.72,8.07,101.5-32.53-2.84,48.93,65.53,57.67,72.33,9.44-1.77,1.59-2.4,2.33-3.16,2.86Zm-68.87-36.14c2.93,44.3-61.2,59.48-76.65,19.42-14.3-49.54,34.77-86.61,76.3-100.54,1.06,27.09,.39,54.04,.35,81.12Zm165.55-240.28c-30.44-52.17,3.92-125.46-23.87-179.66-22.07-39.34-89.99-31.24-105.69,9.83-.37-.04-.74-.09-1.11-.15-1.67-12.3,.51-23.93-1.15-36.36-20.84,11.38-39.76,23.98-59.19,35.95,3.5,5.97,12.98,4.43,14.58,16.44,4.22,32.06,.81,64.74,1.88,97.03,.09,22.06,.55,46.48-16.74,62.79,5.3,1.35,73.73,1.29,77.26-.02-21.85-15.12-17.61-44.97-18.79-68.28,4.18-33.12-11.63-100.78,18.35-120.91,24.03-12.6,55.13,4.34,57.58,30.11,1.9,10.57,2.77,21.32,2.62,32.18-4.63,39.4,12.95,97.71-18.4,127.1,5.52,1.18,74.93,.92,78.7-.28-2.12-2.03-4.25-3.75-6.02-5.76Zm-672.67,342.7c-98.4,11.99-180.26-39.03-178.5-144.49-.02-43.18,.15-86.37,.59-129.56-.25-18.75,1.59-39.45,16.48-52.76-26.02-.55-53.07-1.69-78.59,.35,15.61,13.15,17.92,34.18,17.29,53.39-.25,39.95,.61,79.91-.28,119.84-.39,.11-.76,.22-1.13,.33-28.11-41.98-85-46.59-129.17-30.3-24.52,3.69-62.77,41.94-82.71,15.67,4.01,41.15,62.36,3.96,84.06-1.18,32.44-8.46,71.86-17.08,100.59,5.45,43.98,34.39,23.51,90.31,69.44,138.06,41.36,54.36,136.74,78.45,187.61,25.18-2.27,0-3.97-.13-5.67,.02Zm780.04-297.2c-30.83-14.93-63.25,16.25-75.28,42.73-3.17,10.49-8.69,9.21-17.55,6.69-38.19-8.59-87.43,4.09-103.4,43.17-18.01,48.1,6.27,105.5,54.59,124.11-.17,.37-.35,.76-.55,1.13-24.08,1.89-56.3,19.24-44.54,47.27,4.82,12.77,15.11,19.44,27.84,22.23,28.89,6.15,58.76-.92,88.03-.24,12.92,1.71,35.21-4.74,39.57,12.01,1.63,10.75,1.07,18.47-9.99,26.27-29.6,19.73-138.81,28.61-131.89-26.62-23.48,14.84-21.93,51.37,3.9,63.22,26.4,13.78,58.97,14.4,87.02,4.49,34.28-13.1,66.26-47.61,61.06-86.31-14.54-52.21-82.46-32.63-121.78-26.79-66.75,10.84-16.91-43.79,22.28-31.87,50.61,6.93,107.73-32.52,99.3-87.47-1.51-24.57-10.32-50.21-30.39-65.53-4.91-6.29-26.63-11-23.28-19.42,4.98-10.46,12.44-21.5,24.48-24.18,6.91-1.85,13.73,2.29,15.57,9.2,1.74,12.04,15.27,16.19,26.05,16.33,26.77,0,33.66-39.05,8.94-50.42Zm-66.19,113.78c8.21,32.22,12.92,102.43-35.56,101.79-45.63-5.86-62.17-58.91-60.34-98.8,1.3-84.46,81.41-80.47,95.9-2.99Z"/>
    </g>
  </g>
</svg>